<svg width="783" height="720" viewBox="0 0 783 720" fill="none" xmlns="http://www.w3.org/2000/svg">
<path d="M550.159 0.19636C499.278 -0.284534 191.076 -5.04539 182.018 80.674C173.345 162.787 292.766 132.707 293.923 169.159C295.151 207.438 272.385 218.498 208.808 216.07C181.271 215.012 94.3254 224.75 92.9281 279.524C91.5308 333.985 188.619 327.108 183.825 372.312C181.03 423.672 107.311 434.853 78.2565 448.438C46.6967 464.909 -11.3876 492.079 1.95903 550.388C19.5217 618.001 131.065 605.835 173.08 614.178C201.147 618.723 290.357 626.585 277.661 686.505C270.988 722.524 197.75 724.616 211.747 770.806C225.913 813.99 353.621 822.526 379.495 823.944C486.895 829.739 722.701 839.213 827.739 794.995C866.358 778.909 900.447 759.529 896.496 701.725C894.569 650.101 866.695 642.551 913.673 602.661C943.378 576.981 1000.23 579.049 996.861 504.126C995.054 463.706 891.437 446.923 893.75 404.605C897.364 338.121 1024.54 394.578 1025 276.999C1025.29 203.615 793.915 244.659 796.276 172.068C793.168 142.613 844.073 130.11 841.905 97.4813C843.11 45.2562 783.17 6.6163 550.183 0.19636H550.159Z" fill="#E7EBF8"/>
<path opacity="0.6" d="M317.9 401.5C315 401.5 312.65 400.6 310.85 398.8C309.05 397 308.15 394.65 308.15 391.75V378.7H260.15C257.35 378.7 255.1 378.05 253.4 376.75C251.8 375.45 251 373.8 251 371.8C251 369.8 251.8 367.85 253.4 365.95L310.4 296.8C311.2 295.8 312.35 295 313.85 294.4C315.45 293.8 317 293.5 318.5 293.5C321 293.5 323.15 294.25 324.95 295.75C326.85 297.15 327.8 299 327.8 301.3V363.25H335.15C338.05 363.25 340.3 363.9 341.9 365.2C343.6 366.5 344.45 368.45 344.45 371.05C344.45 373.55 343.6 375.45 341.9 376.75C340.2 378.05 337.95 378.7 335.15 378.7H327.8V391.75C327.8 394.55 326.85 396.9 324.95 398.8C323.15 400.6 320.8 401.5 317.9 401.5ZM309.5 363.4V323.5L276.2 363.4H309.5ZM402.063 401.5C391.963 401.5 383.263 399.35 375.963 395.05C368.663 390.75 363.063 384.55 359.163 376.45C355.363 368.35 353.463 358.7 353.463 347.5C353.463 336.3 355.363 326.65 359.163 318.55C363.063 310.45 368.663 304.25 375.963 299.95C383.263 295.65 391.963 293.5 402.063 293.5C412.163 293.5 420.863 295.65 428.163 299.95C435.463 304.25 441.013 310.45 444.813 318.55C448.713 326.65 450.663 336.3 450.663 347.5C450.663 358.7 448.713 368.35 444.813 376.45C441.013 384.55 435.463 390.75 428.163 395.05C420.863 399.35 412.163 401.5 402.063 401.5ZM402.063 385.75C411.063 385.75 418.063 382.4 423.063 375.7C428.163 368.9 430.713 359.5 430.713 347.5C430.713 335.5 428.163 326.15 423.063 319.45C418.063 312.65 411.063 309.25 402.063 309.25C393.063 309.25 386.013 312.65 380.913 319.45C375.913 326.15 373.413 335.5 373.413 347.5C373.413 359.5 375.913 368.9 380.913 375.7C386.013 382.4 393.063 385.75 402.063 385.75ZM526.494 401.5C523.594 401.5 521.244 400.6 519.444 398.8C517.644 397 516.744 394.65 516.744 391.75V378.7H468.744C465.944 378.7 463.694 378.05 461.994 376.75C460.394 375.45 459.594 373.8 459.594 371.8C459.594 369.8 460.394 367.85 461.994 365.95L518.994 296.8C519.794 295.8 520.944 295 522.444 294.4C524.044 293.8 525.594 293.5 527.094 293.5C529.594 293.5 531.744 294.25 533.544 295.75C535.444 297.15 536.394 299 536.394 301.3V363.25H543.744C546.644 363.25 548.894 363.9 550.494 365.2C552.194 366.5 553.044 368.45 553.044 371.05C553.044 373.55 552.194 375.45 550.494 376.75C548.794 378.05 546.544 378.7 543.744 378.7H536.394V391.75C536.394 394.55 535.444 396.9 533.544 398.8C531.744 400.6 529.394 401.5 526.494 401.5ZM518.094 363.4V323.5L484.794 363.4H518.094Z" fill="#061951"/>
<path opacity="0.6" d="M346.405 270C344.575 270 343.15 269.52 342.13 268.56C341.11 267.6 340.6 266.25 340.6 264.51V243.9C340.6 242.22 341.095 240.9 342.085 239.94C343.105 238.98 344.515 238.5 346.315 238.5H360.265C361.435 238.5 362.02 238.98 362.02 239.94C362.02 240.36 361.87 240.69 361.57 240.93C361.27 241.17 360.835 241.29 360.265 241.29H346.36C345.64 241.29 345.055 241.53 344.605 242.01C344.185 242.49 343.975 243.12 343.975 243.9V252.495H356.845C358.015 252.495 358.6 252.975 358.6 253.935C358.6 254.385 358.435 254.73 358.105 254.97C357.805 255.21 357.385 255.33 356.845 255.33H343.975V264.6C343.975 265.38 344.185 266.01 344.605 266.49C345.055 266.97 345.64 267.21 346.36 267.21H361.255C362.425 267.21 363.01 267.675 363.01 268.605C363.01 269.055 362.845 269.4 362.515 269.64C362.215 269.88 361.795 270 361.255 270H346.405ZM372.542 270.45C372.032 270.45 371.627 270.3 371.327 270C371.057 269.67 370.922 269.22 370.922 268.65V249.3C370.922 248.73 371.057 248.295 371.327 247.995C371.597 247.665 372.002 247.5 372.542 247.5C373.052 247.5 373.442 247.665 373.712 247.995C374.012 248.295 374.162 248.73 374.162 249.3V252C376.202 249.3 379.022 247.95 382.622 247.95H383.747C384.317 247.95 384.767 248.085 385.097 248.355C385.427 248.595 385.592 248.94 385.592 249.39C385.592 249.84 385.427 250.185 385.097 250.425C384.767 250.665 384.317 250.785 383.747 250.785H382.487C379.937 250.785 377.912 251.52 376.412 252.99C374.942 254.43 374.207 256.395 374.207 258.885V268.65C374.207 269.19 374.057 269.625 373.757 269.955C373.487 270.285 373.082 270.45 372.542 270.45ZM394.215 270.45C393.705 270.45 393.3 270.3 393 270C392.73 269.67 392.595 269.22 392.595 268.65V249.3C392.595 248.73 392.73 248.295 393 247.995C393.27 247.665 393.675 247.5 394.215 247.5C394.725 247.5 395.115 247.665 395.385 247.995C395.685 248.295 395.835 248.73 395.835 249.3V252C397.875 249.3 400.695 247.95 404.295 247.95H405.42C405.99 247.95 406.44 248.085 406.77 248.355C407.1 248.595 407.265 248.94 407.265 249.39C407.265 249.84 407.1 250.185 406.77 250.425C406.44 250.665 405.99 250.785 405.42 250.785H404.16C401.61 250.785 399.585 251.52 398.085 252.99C396.615 254.43 395.88 256.395 395.88 258.885V268.65C395.88 269.19 395.73 269.625 395.43 269.955C395.16 270.285 394.755 270.45 394.215 270.45ZM423.408 270.45C420.798 270.45 418.563 269.925 416.703 268.875C414.843 267.825 413.433 266.43 412.473 264.69C411.543 262.92 411.078 261.015 411.078 258.975C411.078 256.935 411.543 255.045 412.473 253.305C413.433 251.535 414.843 250.125 416.703 249.075C418.563 248.025 420.798 247.5 423.408 247.5C426.018 247.5 428.238 248.025 430.068 249.075C431.928 250.125 433.323 251.535 434.253 253.305C435.213 255.045 435.693 256.935 435.693 258.975C435.693 261.015 435.213 262.92 434.253 264.69C433.323 266.43 431.928 267.825 430.068 268.875C428.238 269.925 426.018 270.45 423.408 270.45ZM423.408 267.615C426.108 267.615 428.268 266.85 429.888 265.32C431.538 263.79 432.363 261.675 432.363 258.975C432.363 256.275 431.538 254.16 429.888 252.63C428.268 251.1 426.108 250.335 423.408 250.335C420.678 250.335 418.488 251.1 416.838 252.63C415.218 254.16 414.408 256.275 414.408 258.975C414.408 261.675 415.218 263.79 416.838 265.32C418.488 266.85 420.678 267.615 423.408 267.615ZM444.77 270.45C444.26 270.45 443.855 270.3 443.555 270C443.285 269.67 443.15 269.22 443.15 268.65V249.3C443.15 248.73 443.285 248.295 443.555 247.995C443.825 247.665 444.23 247.5 444.77 247.5C445.28 247.5 445.67 247.665 445.94 247.995C446.24 248.295 446.39 248.73 446.39 249.3V252C448.43 249.3 451.25 247.95 454.85 247.95H455.975C456.545 247.95 456.995 248.085 457.325 248.355C457.655 248.595 457.82 248.94 457.82 249.39C457.82 249.84 457.655 250.185 457.325 250.425C456.995 250.665 456.545 250.785 455.975 250.785H454.715C452.165 250.785 450.14 251.52 448.64 252.99C447.17 254.43 446.435 256.395 446.435 258.885V268.65C446.435 269.19 446.285 269.625 445.985 269.955C445.715 270.285 445.31 270.45 444.77 270.45Z" fill="#0F3CC9"/>
<path d="M728.436 314.854C728.288 314.942 728.096 315 727.875 315H619.231C618.743 315 618.27 314.664 618.152 314.197C616.97 309.085 622.939 305.084 626.973 307.041C627.535 304.441 630.135 302.659 632.854 302.981C631.361 298.322 633.43 293.605 638.38 291.327C642.931 289.238 647.186 290.962 649.89 294.364C651.441 286.464 658.341 279.629 666.749 279.045C671.314 278.738 676.146 280.008 679.707 282.973C683.253 285.909 684.405 289.136 685.292 293.094C687.951 289.326 692.236 287.544 697.186 289.063C702.062 290.553 702.683 295.474 702.461 299.899C706.391 296.672 711.119 295.109 716.246 298.161C720.502 300.688 721.433 304.762 721.595 309.188C725.097 307.128 728.717 309.173 728.998 313.905C729.027 314.387 728.776 314.708 728.451 314.854H728.436Z" fill="#D3DEFF"/>
<path d="M139 70.8022C139 81.4857 168.032 83.4571 169.535 70.8022C171.046 58.1396 139 54.7579 139 70.8022Z" fill="#E7EBF8"/>
<path d="M125 170.748C125 195.328 207.875 200.07 210.888 170.748C214.601 134.592 125 127.724 125 170.748Z" fill="#E7EBF8"/>
<path d="M139 675.607C139 694.287 201.638 697.896 203.915 675.607C206.717 648.135 139 642.907 139 675.607Z" fill="#E7EBF8"/>
<path d="M71 394.446C71 401.422 90.7998 402.772 91.5211 394.446C92.4093 384.18 71 382.231 71 394.446Z" fill="#E7EBF8"/>
<path d="M789.866 332.857C791.018 327.181 782.472 321.956 775.889 324.046C776.967 320.156 775.742 316.614 769.897 314.872C767.461 314.146 764.539 314.161 761.971 314.843C766.576 305.814 762.296 295.537 748.068 293.418C732.6 291.11 715.434 298.571 712.364 310.59C699.789 298.426 673.134 312.999 681 326.992C676.144 326.238 671.126 328.938 670.831 332.958C665.916 331.318 662.034 336.253 665.075 340.492C665.296 340.797 665.754 341 666.197 341H797.497C797.837 341 798.102 340.913 798.294 340.797C798.501 340.681 798.663 340.506 798.752 340.26C800.242 336.079 794.737 332.102 789.866 332.871V332.857Z" fill="white"/>
<path d="M334.672 85.3619C335.606 80.7499 328.746 76.5112 323.488 78.2173C324.342 75.0449 323.381 72.1925 318.71 70.7796C316.762 70.1931 314.439 70.193 312.384 70.7529C316.068 63.4217 312.624 55.0775 301.254 53.3446C288.895 51.4519 275.149 57.53 272.693 67.2872C262.63 57.3967 241.33 69.2333 247.603 80.6166C243.706 80.0035 239.702 82.1895 239.462 85.4685C235.538 84.1356 232.415 88.1345 234.871 91.6001C235.057 91.8401 235.404 92 235.778 92H340.784C341.051 92 341.265 91.9467 341.425 91.8401C341.585 91.7334 341.719 91.6001 341.799 91.3868C343 88.0011 338.596 84.7488 334.699 85.3886L334.672 85.3619Z" fill="white"/>
<path d="M181.581 350.83C181.753 350.936 181.946 351 182.204 351H299.674C300.189 351 300.726 350.638 300.833 350.127C302.122 344.594 295.658 340.252 291.298 342.359C290.675 339.549 287.862 337.612 284.942 337.974C286.552 332.93 284.319 327.8 278.971 325.353C274.054 323.097 269.458 324.948 266.537 328.652C264.862 320.074 257.389 312.668 248.305 312.05C243.365 311.71 238.147 313.093 234.303 316.307C230.459 319.5 229.213 322.99 228.268 327.268C225.391 323.182 220.752 321.266 215.405 322.905C210.122 324.523 209.456 329.865 209.714 334.654C205.462 331.163 200.351 329.461 194.81 332.76C190.214 335.505 189.205 339.911 189.012 344.7C185.232 342.465 181.323 344.7 181.001 349.808C180.98 350.34 181.238 350.681 181.603 350.851L181.581 350.83Z" fill="white"/>
<path d="M255.789 615.764C256.023 615.912 256.285 616 256.635 616H416.198C416.898 616 417.628 615.499 417.773 614.792C419.524 607.129 410.743 601.118 404.822 604.035C403.976 600.145 400.154 597.463 396.187 597.964C398.375 590.98 395.341 583.878 388.078 580.489C381.398 577.365 375.155 579.929 371.188 585.056C368.913 573.18 358.761 562.924 346.422 562.07C339.713 561.598 332.625 563.514 327.403 567.964C322.182 572.384 320.49 577.217 319.206 583.141C315.297 577.483 308.996 574.83 301.733 577.099C294.557 579.339 293.653 586.736 294.003 593.367C288.227 588.534 281.284 586.176 273.758 590.744C267.516 594.546 266.145 600.646 265.882 607.277C260.748 604.182 255.439 607.277 255.002 614.35C254.973 615.086 255.323 615.558 255.819 615.794L255.789 615.764Z" fill="white"/>
<path d="M442.429 216.883C442.548 216.953 442.715 217 442.882 217H530.991C531.372 217 531.777 216.742 531.873 216.344C532.85 212.224 527.987 208.993 524.721 210.585C524.268 208.501 522.146 207.05 519.953 207.307C521.169 203.561 519.5 199.745 515.471 197.919C511.776 196.233 508.344 197.614 506.15 200.377C504.887 194.009 499.285 188.507 492.467 188.039C488.772 187.781 484.838 188.811 481.954 191.199C479.069 193.564 478.14 196.163 477.425 199.347C475.279 196.303 471.799 194.875 467.794 196.093C463.836 197.287 463.336 201.267 463.527 204.825C460.332 202.227 456.518 200.962 452.346 203.421C448.889 205.458 448.15 208.735 448.007 212.294C445.171 210.632 442.238 212.294 442 216.087C442 216.485 442.167 216.742 442.453 216.86L442.429 216.883Z" fill="white"/>
<path d="M567.908 673.675C567.908 673.485 567.84 673.322 567.758 673.2C567.622 672.914 567.35 672.697 566.928 672.711C554.26 672.914 541.606 673.118 528.939 673.322C528.422 673.322 527.946 673.757 527.959 674.301C528.259 681.612 527.646 689.153 528.857 696.397C529.987 703.15 537.402 703.667 543.13 703.993C550.478 704.414 560.955 704.672 565.173 700.799C570.057 696.301 568.153 680.851 567.908 673.689V673.675Z" fill="#061951"/>
<path d="M534.571 687.958C528.83 687.958 527.51 682.549 527.496 682.495C527.428 682.182 527.619 681.87 527.932 681.802C528.258 681.734 528.557 681.924 528.639 682.237C528.694 682.454 530.027 687.767 536.259 686.64C540.409 685.892 540.722 677.209 540.722 677.127C540.722 676.842 540.953 676.597 541.239 676.57C541.511 676.529 541.796 676.706 541.878 676.991C541.987 677.372 542.096 677.861 542.232 678.418C542.708 680.524 543.443 683.691 544.953 685.022C546.858 686.68 551.226 686.884 553.471 685.879C555.811 684.968 556.94 681.693 556.859 678.731C556.804 678.309 556.764 677.861 556.736 677.426C556.736 677.113 556.954 676.855 557.267 676.828C557.566 676.801 557.852 677.018 557.906 677.317C557.974 677.752 558.015 678.187 558.029 678.622C558.519 681.802 560.383 684.452 562.764 685.172C564.655 685.729 566.478 684.927 567.921 682.916C568.111 682.658 568.479 682.59 568.737 682.78C568.996 682.97 569.064 683.337 568.873 683.596C567.145 686.014 564.791 687.006 562.437 686.286C560.424 685.688 558.75 684.003 557.743 681.775C557.199 684.126 555.934 686.191 553.947 686.966C551.348 688.121 546.504 687.917 544.205 685.906C542.831 684.71 542.055 682.468 541.538 680.47C540.994 683.378 539.674 687.224 536.504 687.795C535.823 687.917 535.197 687.971 534.612 687.971L534.571 687.958Z" fill="#6789F4"/>
<path d="M547.061 670.142C543.033 670.142 529.373 670.319 527.876 673.404C525.876 677.725 548.109 677.385 552.408 677.249C572.763 676.584 575.185 669.123 547.075 670.142H547.061Z" fill="#6789F4"/>
<path d="M547.061 669.368C544.735 669.368 525.223 669.028 527.006 674.301C527.876 676.869 531.999 677.1 534.19 677.413C539.02 678.078 543.945 678.106 548.817 678.092C553.13 678.065 557.429 677.847 561.688 677.086C563.593 676.747 567.716 676.094 568.559 673.879C570.736 668.172 548.599 669.313 547.061 669.368C546.054 669.395 546.054 670.958 547.061 670.93C551.511 670.795 555.933 670.795 560.368 671.216C561.144 671.297 568.886 672.33 566.355 673.974C561.675 677.032 554.191 676.488 548.83 676.529C542.843 676.584 536.448 676.692 530.638 675.143C527.822 674.396 529.727 672.765 531.591 672.221C533.55 671.651 535.646 671.474 537.659 671.284C540.775 670.985 543.932 670.93 547.075 670.917C548.082 670.917 548.082 669.354 547.075 669.354L547.061 669.368Z" fill="#6789F4"/>
<path d="M568.179 627.091C567.92 642.461 567.376 657.83 567.172 673.186C567.172 673.933 568.328 673.933 568.342 673.186C568.546 657.83 569.104 642.447 569.349 627.091C569.363 626.344 568.192 626.344 568.179 627.091Z" fill="#061951"/>
<path d="M524.978 626.833C525.454 642.393 525.658 657.898 527.291 673.39C527.373 674.124 528.543 674.137 528.461 673.39C526.828 657.898 526.624 642.393 526.148 626.833C526.121 626.086 524.951 626.086 524.978 626.833Z" fill="#061951"/>
<path d="M546.055 629.442C547.361 645.124 545.728 660.861 547.089 676.543C547.157 677.29 548.327 677.29 548.259 676.543C546.885 660.861 548.531 645.124 547.225 629.442C547.157 628.695 545.987 628.695 546.055 629.442Z" fill="#061951"/>
<path d="M628.441 493.224C623.529 480.79 614.481 468.41 600.317 465.856C600.208 465.842 600.112 465.842 600.017 465.828C599.936 465.828 599.867 465.788 599.786 465.788C589.214 464.714 583.064 475.246 579.335 483.304C572.627 497.872 569.688 514.192 567.049 529.847C561.878 560.654 556.545 594.409 565.593 624.944C566.083 626.629 568.341 626.847 569.28 625.42C578.954 610.567 598.915 605.485 611.678 593.635C625.012 581.255 631.788 563.154 633.952 545.638C636.169 527.782 635.108 510.116 628.441 493.224Z" fill="#6789F4"/>
<path d="M523.155 543.056C518.461 517.712 507.372 492.368 494.582 469.905C494.133 469.131 493.412 468.872 492.718 468.968C492.432 468.968 492.133 469.049 491.82 469.199C478.962 475.803 472.05 488.454 467.723 501.527C463.07 515.551 460.634 532.647 462.797 547.323C465.587 566.321 476.336 583.103 490.5 596.081C502.093 606.735 516.529 613.625 526.897 625.801C528.054 627.16 530.353 626.018 530.34 624.401C530.068 597.263 528.122 569.759 523.169 543.042L523.155 543.056Z" fill="#9EB5FA"/>
<path d="M584.316 451.166C572.955 444.969 559.675 443.923 547.13 446.41C546.354 446.559 545.919 447.021 545.755 447.578C538.163 458.395 537.047 473.52 535.945 486.172C534.19 506.066 534.666 526.165 535.551 546.086C536.748 572.939 539.007 599.859 542.435 626.534C542.572 627.594 543.252 628.505 544.449 628.505H567.566C568.247 628.505 568.982 628.138 569.308 627.526C590.643 588.39 596.616 541.317 600.195 497.682C601.011 487.734 601.664 477.746 601.827 467.772C601.936 461.181 589.146 453.802 584.343 451.179L584.316 451.166Z" fill="#9EB5FA"/>
<path d="M552.313 454.128C548.694 433.296 511.875 449.916 502.133 457.036C493.125 463.613 490.69 469.837 490.105 479.893C489.139 496.649 490.05 513.499 492.173 530.133C495.098 552.976 500.895 575.711 510.201 596.896C513.031 603.351 516.134 609.657 519.535 615.84C521.073 618.639 524.461 627.526 527.781 628.423C532.666 629.742 539.373 628.491 544.435 628.491C545.442 628.491 546.054 627.893 546.286 627.173C546.367 626.983 546.435 626.765 546.449 626.521C549.633 588.539 552.15 550.462 553.456 512.372C554.109 493.265 555.606 473.085 552.313 454.128Z" fill="#6789F4"/>
<path d="M524.447 629.375C539.359 632.147 555.102 631.97 570.001 629.375C574.26 628.641 572.45 622.933 568.205 623.681C554.558 626.045 539.904 626.222 526.243 623.681C521.998 622.893 520.202 628.586 524.447 629.375Z" fill="#061951"/>
<path d="M694.903 190.75C694.903 190.635 694.865 190.539 694.807 190.462C694.711 190.289 694.557 190.154 694.306 190.154C686.55 190.289 678.793 190.404 671.016 190.539C670.709 190.539 670.401 190.808 670.42 191.135C670.612 195.614 670.227 200.228 670.978 204.668C671.671 208.801 676.213 209.128 679.717 209.32C684.221 209.589 690.649 209.743 693.229 207.359C696.231 204.611 695.057 195.133 694.903 190.75Z" fill="#061951"/>
<path d="M674.482 199.516C670.959 199.516 670.151 196.21 670.151 196.171C670.112 195.979 670.228 195.787 670.42 195.748C670.613 195.71 670.805 195.825 670.844 196.017C670.882 196.152 671.691 199.401 675.521 198.709C678.062 198.247 678.254 192.942 678.254 192.884C678.254 192.711 678.389 192.557 678.562 192.538C678.735 192.519 678.909 192.615 678.947 192.788C679.005 193.019 679.082 193.326 679.159 193.672C679.448 194.96 679.89 196.902 680.834 197.728C682.008 198.747 684.683 198.863 686.05 198.247C687.474 197.69 688.186 195.691 688.128 193.864C688.09 193.595 688.071 193.326 688.051 193.057C688.051 192.865 688.186 192.711 688.379 192.692C688.552 192.692 688.744 192.807 688.764 192.999C688.802 193.268 688.821 193.518 688.841 193.807C689.149 195.748 690.284 197.382 691.747 197.824C692.902 198.17 694.018 197.671 694.904 196.44C695.019 196.287 695.25 196.248 695.404 196.363C695.558 196.479 695.597 196.709 695.481 196.863C694.423 198.343 692.979 198.959 691.535 198.516C690.304 198.151 689.264 197.113 688.648 195.748C688.321 197.19 687.532 198.459 686.319 198.92C684.722 199.631 681.757 199.497 680.352 198.267C679.505 197.536 679.043 196.152 678.716 194.941C678.37 196.729 677.561 199.074 675.617 199.439C675.194 199.516 674.809 199.555 674.462 199.555L674.482 199.516Z" fill="#6789F4"/>
<path d="M682.121 188.597C679.658 188.597 671.285 188.713 670.361 190.596C669.129 193.249 682.756 193.038 685.393 192.961C697.866 192.557 699.348 187.982 682.121 188.616V188.597Z" fill="#6789F4"/>
<path d="M682.123 188.117C680.699 188.117 668.746 187.905 669.824 191.135C670.362 192.711 672.884 192.846 674.231 193.038C677.195 193.442 680.217 193.461 683.201 193.461C685.838 193.461 688.475 193.307 691.092 192.846C692.267 192.634 694.788 192.23 695.308 190.885C696.636 187.386 683.085 188.078 682.142 188.117C681.526 188.136 681.526 189.097 682.142 189.078C684.856 189.001 687.589 188.982 690.303 189.251C690.785 189.308 695.519 189.924 693.98 190.942C691.112 192.807 686.531 192.48 683.239 192.519C679.563 192.557 675.656 192.615 672.095 191.673C670.382 191.212 671.537 190.212 672.672 189.885C673.866 189.539 675.155 189.424 676.387 189.308C678.293 189.116 680.237 189.097 682.161 189.078C682.777 189.078 682.777 188.117 682.161 188.117H682.123Z" fill="#6789F4"/>
<path d="M695.078 162.203C694.924 171.623 694.577 181.042 694.462 190.462C694.462 190.923 695.174 190.923 695.174 190.462C695.309 181.042 695.636 171.623 695.809 162.203C695.809 161.742 695.097 161.742 695.097 162.203H695.078Z" fill="#061951"/>
<path d="M668.592 162.049C668.881 171.584 669.016 181.081 670.016 190.577C670.055 191.039 670.786 191.039 670.729 190.577C669.728 181.081 669.612 171.584 669.304 162.049C669.304 161.588 668.573 161.588 668.592 162.049Z" fill="#061951"/>
<path d="M681.507 163.645C682.316 173.257 681.296 182.907 682.143 192.519C682.181 192.98 682.893 192.98 682.855 192.519C682.008 182.907 683.028 173.257 682.22 163.645C682.181 163.184 681.469 163.184 681.507 163.645Z" fill="#061951"/>
<path d="M731.994 80.1761C728.991 72.5635 723.447 64.9702 714.747 63.3939C714.69 63.3939 714.632 63.3939 714.555 63.3939C714.497 63.3939 714.459 63.3747 714.42 63.3554C707.934 62.7018 704.161 69.1417 701.89 74.1014C697.79 83.0212 695.981 93.0175 694.364 102.629C691.207 121.507 687.935 142.191 693.478 160.915C693.786 161.934 695.153 162.088 695.73 161.204C701.659 152.111 713.901 148.977 721.715 141.73C729.896 134.137 734.034 123.045 735.362 112.318C736.709 101.38 736.074 90.5376 731.974 80.1953L731.994 80.1761Z" fill="#6789F4"/>
<path d="M667.475 110.703C664.588 95.1705 657.813 79.6378 649.959 65.8737C649.69 65.3931 649.247 65.2393 648.824 65.297C648.651 65.297 648.458 65.3354 648.266 65.4508C640.393 69.5069 636.139 77.2541 633.503 85.2703C630.654 93.8633 629.172 104.34 630.481 113.337C632.194 124.986 638.776 135.252 647.457 143.21C654.56 149.746 663.414 153.975 669.746 161.434C670.459 162.261 671.864 161.569 671.864 160.588C671.69 143.96 670.497 127.101 667.456 110.722L667.475 110.703Z" fill="#9EB5FA"/>
<path d="M704.952 54.3972C697.984 50.6101 689.862 49.9565 682.163 51.4752C681.681 51.5713 681.412 51.8597 681.316 52.1865C676.658 58.8186 675.984 68.0844 675.31 75.8315C674.232 88.0193 674.521 100.342 675.079 112.549C675.811 129.004 677.197 145.498 679.295 161.857C679.372 162.511 679.795 163.068 680.526 163.068H694.693C695.116 163.068 695.559 162.838 695.752 162.472C708.821 138.481 712.497 109.627 714.672 82.8866C715.173 76.7927 715.577 70.6796 715.673 64.5472C715.731 60.5103 707.897 55.9735 704.952 54.378V54.3972Z" fill="#9EB5FA"/>
<path d="M685.336 56.2042C683.122 43.4398 660.544 53.6283 654.577 57.992C649.053 62.029 647.552 65.8353 647.206 72.006C646.609 82.2714 647.167 92.5945 648.476 102.783C650.266 116.778 653.827 130.715 659.524 143.691C661.256 147.651 663.162 151.515 665.241 155.302C666.184 157.013 668.263 162.472 670.284 163.011C673.286 163.818 677.386 163.049 680.504 163.049C681.12 163.049 681.505 162.684 681.64 162.242C681.698 162.126 681.736 161.992 681.736 161.838C683.68 138.558 685.22 115.221 686.029 91.8832C686.433 80.1761 687.337 67.7961 685.336 56.185V56.2042Z" fill="#6789F4"/>
<path d="M668.264 163.606C677.407 165.317 687.05 165.202 696.174 163.606C698.791 163.164 697.675 159.666 695.076 160.108C686.723 161.569 677.734 161.665 669.361 160.108C666.763 159.627 665.666 163.126 668.264 163.606Z" fill="#061951"/>
<path d="M137.318 335.578C137.318 335.526 137.3 335.483 137.274 335.448C137.231 335.37 137.161 335.309 137.048 335.309C133.544 335.37 130.04 335.422 126.528 335.483C126.389 335.483 126.25 335.604 126.258 335.752C126.345 337.775 126.171 339.859 126.51 341.865C126.823 343.732 128.875 343.88 130.458 343.967C132.492 344.088 135.396 344.158 136.561 343.081C137.917 341.839 137.387 337.558 137.318 335.578Z" fill="#061951"/>
<path d="M128.092 339.538C126.501 339.538 126.136 338.044 126.136 338.027C126.119 337.94 126.171 337.853 126.258 337.836C126.345 337.819 126.432 337.871 126.449 337.958C126.467 338.018 126.832 339.486 128.562 339.173C129.71 338.965 129.797 336.568 129.797 336.542C129.797 336.464 129.857 336.395 129.936 336.386C130.014 336.377 130.092 336.421 130.11 336.499C130.136 336.603 130.17 336.742 130.205 336.898C130.336 337.48 130.536 338.357 130.962 338.73C131.492 339.191 132.7 339.243 133.318 338.965C133.961 338.713 134.283 337.81 134.257 336.985C134.239 336.864 134.231 336.742 134.222 336.62C134.222 336.534 134.283 336.464 134.37 336.455C134.448 336.455 134.535 336.507 134.544 336.594C134.561 336.716 134.57 336.829 134.578 336.959C134.718 337.836 135.231 338.574 135.891 338.774C136.413 338.93 136.917 338.704 137.317 338.149C137.369 338.079 137.474 338.062 137.543 338.114C137.613 338.166 137.63 338.27 137.578 338.34C137.1 339.008 136.448 339.286 135.796 339.086C135.239 338.922 134.77 338.453 134.492 337.836C134.344 338.487 133.987 339.06 133.44 339.269C132.718 339.59 131.379 339.529 130.744 338.974C130.362 338.644 130.153 338.018 130.005 337.471C129.849 338.279 129.484 339.338 128.605 339.503C128.414 339.538 128.24 339.555 128.084 339.555L128.092 339.538Z" fill="#6789F4"/>
<path d="M131.544 334.606C130.431 334.606 126.649 334.658 126.232 335.509C125.675 336.707 131.831 336.612 133.022 336.577C138.656 336.395 139.326 334.328 131.544 334.614V334.606Z" fill="#6789F4"/>
<path d="M131.545 334.389C130.901 334.389 125.502 334.293 125.989 335.752C126.232 336.464 127.371 336.525 127.98 336.612C129.319 336.794 130.684 336.803 132.032 336.803C133.223 336.803 134.414 336.733 135.596 336.525C136.127 336.429 137.266 336.247 137.5 335.639C138.1 334.059 131.98 334.371 131.553 334.389C131.275 334.397 131.275 334.832 131.553 334.823C132.779 334.788 134.014 334.779 135.24 334.901C135.457 334.927 137.596 335.205 136.901 335.665C135.605 336.507 133.536 336.36 132.049 336.377C130.388 336.395 128.623 336.421 127.015 335.995C126.241 335.787 126.763 335.335 127.276 335.188C127.815 335.031 128.397 334.979 128.954 334.927C129.815 334.84 130.693 334.832 131.562 334.823C131.84 334.823 131.84 334.389 131.562 334.389H131.545Z" fill="#6789F4"/>
<path d="M137.395 322.683C137.326 326.938 137.169 331.193 137.117 335.448C137.117 335.656 137.439 335.656 137.439 335.448C137.5 331.193 137.648 326.938 137.726 322.683C137.726 322.475 137.404 322.475 137.404 322.683H137.395Z" fill="#061951"/>
<path d="M125.432 322.614C125.562 326.921 125.623 331.211 126.075 335.5C126.093 335.709 126.423 335.709 126.397 335.5C125.945 331.211 125.893 326.921 125.754 322.614C125.754 322.405 125.423 322.405 125.432 322.614Z" fill="#061951"/>
<path d="M131.265 323.335C131.63 327.676 131.17 332.035 131.552 336.377C131.57 336.586 131.891 336.586 131.874 336.377C131.491 332.035 131.952 327.676 131.587 323.335C131.57 323.126 131.248 323.126 131.265 323.335Z" fill="#061951"/>
<path d="M154.072 285.631C152.716 282.192 150.212 278.762 146.282 278.05C146.256 278.05 146.23 278.05 146.195 278.05C146.169 278.05 146.151 278.041 146.134 278.033C143.204 277.738 141.5 280.646 140.474 282.887C138.622 286.916 137.805 291.431 137.074 295.773C135.648 304.3 134.17 313.644 136.674 322.102C136.813 322.562 137.431 322.631 137.692 322.232C140.369 318.124 145.899 316.709 149.429 313.435C153.124 310.005 154.994 304.995 155.593 300.15C156.202 295.209 155.915 290.311 154.063 285.64L154.072 285.631Z" fill="#6789F4"/>
<path d="M124.928 299.42C123.624 292.404 120.563 285.388 117.016 279.17C116.894 278.953 116.694 278.884 116.503 278.91C116.425 278.91 116.338 278.927 116.251 278.979C112.695 280.811 110.773 284.311 109.582 287.932C108.295 291.813 107.626 296.546 108.217 300.61C108.991 305.872 111.964 310.509 115.886 314.104C119.094 317.056 123.093 318.967 125.954 322.336C126.276 322.709 126.91 322.397 126.91 321.954C126.832 314.443 126.293 306.827 124.919 299.429L124.928 299.42Z" fill="#9EB5FA"/>
<path d="M141.857 273.986C138.709 272.276 135.04 271.98 131.562 272.666C131.345 272.71 131.223 272.84 131.18 272.988C129.076 275.983 128.771 280.169 128.467 283.668C127.98 289.174 128.111 294.74 128.363 300.254C128.693 307.687 129.319 315.137 130.267 322.527C130.302 322.822 130.493 323.074 130.823 323.074H137.222C137.414 323.074 137.614 322.97 137.701 322.805C143.604 311.968 145.265 298.934 146.247 286.855C146.473 284.103 146.656 281.341 146.699 278.571C146.725 276.748 143.187 274.698 141.857 273.978V273.986Z" fill="#9EB5FA"/>
<path d="M132.997 274.803C131.997 269.037 121.798 273.639 119.103 275.61C116.608 277.434 115.929 279.153 115.773 281.94C115.503 286.577 115.755 291.24 116.347 295.843C117.155 302.164 118.764 308.46 121.337 314.321C122.12 316.11 122.981 317.855 123.92 319.566C124.346 320.339 125.285 322.805 126.198 323.048C127.554 323.413 129.406 323.065 130.814 323.065C131.093 323.065 131.266 322.9 131.327 322.701C131.353 322.649 131.371 322.588 131.371 322.518C132.249 312.003 132.944 301.461 133.31 290.919C133.492 285.631 133.901 280.039 132.997 274.794V274.803Z" fill="#6789F4"/>
<path d="M125.284 323.317C129.414 324.09 133.77 324.038 137.891 323.317C139.073 323.118 138.569 321.537 137.395 321.737C133.622 322.397 129.562 322.44 125.78 321.737C124.606 321.52 124.11 323.1 125.284 323.317Z" fill="#061951"/>
</svg>
